# xmcd CD database file
#
# Track frame offsets:
#	150
#	28677
#	60351
#	92841
#	118215
#	144066
#	187566
#	209878
#	237066
#
# Disc length: 3594 seconds
#
# Revision: 0
# Processed by: cddbd v1.5.2PL0 Copyright (c) Steve Scherf et al.
# Submitted via: CDex 1.70beta2
#
DISCID=720e0809
DTITLE=Manami Morita - Colors
DYEAR=2009
DGENRE=Jazz
TTITLE0=My Little Blue Sweetie
TTITLE1=Jungle Book
TTITLE2=Sleeping Tiger
TTITLE3=My Favorite Things
TTITLE4=Esp.
TTITLE5=Interlude
TTITLE6=Goodbye At 12:00 Am
TTITLE7=Goin' Home
TTITLE8=Summertime
EXTD=YEAR: 2009
EXTT0=
EXTT1=
EXTT2=
EXTT3=
EXTT4=
EXTT5=
EXTT6=
EXTT7=
EXTT8=
PLAYORDER=
